# xmcd
#
# Track frame offsets:
#	150
#	20527
#	35605
#	54360
#	72572
#	92572
#	111890
#	129467
#	148430
#	166505
#	182087
#	195832
#	203202
#	221610
#	238990
#	261092
#	284460
#	304760
#	321315
#	340345
#
# Disc length: 4751 seconds
#
# Revision: 0
# Processed by: cddbd v1.5.1PL0 Copyright (c) Steve Scherf et al.
# Submitted via: dBpowerAMP V4.0
#
DISCID=32128d14
DTITLE=Rocio Jurado - Soso lo mejor 20 exitos
DYEAR=2001
DGENRE=National Folk
TTITLE0=Se nos rompio el amor
TTITLE1=Rocio de luna blanca
TTITLE2=Amor de noche
TTITLE3=Necesito estar sola
TTITLE4=Este noche gano yo
TTITLE5=Perros perdidos
TTITLE6=Como siempre que no estas
TTITLE7=Vibro
TTITLE8=Mi bruto bello
TTITLE9=Distante
TTITLE10=Companero mio
TTITLE11=Cancion del fuego fatuo
TTITLE12=Donde estas amor?
TTITLE13=Paloma brava
TTITLE14=Aprendiz de hombre
TTITLE15=Punto de partida
TTITLE16=Eres unico
TTITLE17=No sigas
TTITLE18=Tan solo una mujer
TTITLE19=Quien te crees tu
EXTD=
EXTT0=
EXTT1=
EXTT2=
EXTT3=
EXTT4=
EXTT5=
EXTT6=
EXTT7=
EXTT8=
EXTT9=
EXTT10=
EXTT11=
EXTT12=
EXTT13=
EXTT14=
EXTT15=
EXTT16=
EXTT17=
EXTT18=
EXTT19=
PLAYORDER=
